<svg width="3556" height="357" viewBox="0 0 3556 357" fill="none" xmlns="http://www.w3.org/2000/svg">
<g clip-path="url(#clip0_1476_46290)">
<rect width="3556" height="357" fill="white"/>
<path d="M90.62 101.459C90.62 101.324 90.62 101.19 90.62 133.191C90.62 165.193 90.62 229.336 90.7617 256.466C90.9034 283.597 91.1869 271.772 92.8123 261.64C98.4165 226.705 116.263 210.408 124.718 203.761C128.742 200.599 134.588 201.004 139.433 201.732C149.468 203.238 155.049 222.191 159.348 234.531C162.64 243.983 149.28 255.646 131.703 270.96C121.004 277.37 106.304 281.822 94.178 283.132C87.7297 283.578 80.6826 283.578 73.4219 283.578" stroke="black" stroke-width="20" stroke-linecap="round"/>
<path d="M170.688 234.792C182.771 232.187 208.719 223.094 212.195 216.477C214.399 212.282 213.669 207.469 212.631 202.632C211.741 198.486 207.053 197.009 203.298 195.615C198.359 193.782 193.237 193.857 189.45 194.804C177.781 197.724 178.588 240.616 183.483 265.037C184.122 268.228 185.866 269.555 187.125 270.749C188.384 271.942 189.924 272.682 196.069 273.064C202.215 273.446 212.92 273.446 226.959 272.43" stroke="black" stroke-width="20" stroke-linecap="round"/>
<path d="M238.883 207.205C249.89 247.545 251.914 255.372 254.52 259.297C255.559 260.86 257.602 260.147 258.864 257.561C269.889 234.958 276.484 203.338 281.239 198.076C288.443 190.102 294.076 218.672 313.204 260.862C317.241 269.766 318.257 271.291 319.112 271.384C323.067 252.204 328.013 210.079 330.694 200.241C331.186 198.47 331.517 196.726 332.773 191.242" stroke="black" stroke-width="20" stroke-linecap="round"/>
<path d="M391.128 214.296C388.285 202.163 385.265 195.247 381.67 194.238C379.679 193.679 377.157 193.894 375 194.383C364.486 196.764 358.007 227.402 353.031 256.541C351.77 263.926 352.475 272.077 353.313 276.67C354.151 281.264 355.826 282.141 357.787 282.593C359.748 283.045 361.944 283.045 364.027 282.188C381.258 275.105 393.599 233.23 397.956 219.93C398.574 218.043 399.133 216.23 399.639 216.077C400.934 229.313 402.395 262.381 409.575 283.77C411.691 287.898 413.703 290.514 415.775 293.208" stroke="black" stroke-width="20" stroke-linecap="round"/>
<path d="M441.676 208.234C441.676 206.641 441.676 229.672 441.676 262.453C441.676 274.554 446.592 232.361 458.083 212.601C463.65 203.028 468.499 197.769 471.339 194.87C474.02 192.132 478.411 191.418 482.843 191.923C484.792 192.428 486.133 193.438 488.148 195.628C490.163 197.819 492.811 201.161 495.54 204.604" stroke="black" stroke-width="20" stroke-linecap="round"/>
<path d="M500.28 241.507C500.024 241.507 506.852 241.296 518.658 240.345C526.266 239.733 530.633 234.409 534.095 229.298C539.504 221.312 538.395 209.02 535.74 199.856C534.139 194.332 527.607 192.499 523.639 191.1C521.462 190.333 518.675 190.383 516.437 191.348C511.864 193.322 508.517 203.257 504.575 221.402C498.675 248.558 501.684 267.166 503.519 270.377C508.319 278.779 516.197 282.798 526.803 284.902C533.557 284.886 540.342 282.113 545.725 277.679C547.926 275.8 549.049 274.674 552.752 270.323" stroke="black" stroke-width="20" stroke-linecap="round"/>
<path d="M593.824 204.873L597.028 219.958" stroke="black" stroke-width="20" stroke-linecap="round"/>
<path d="M587.746 262.317C589.48 265.261 591.214 268.205 592.567 270.423C593.921 272.641 594.842 274.044 596.204 275.903" stroke="black" stroke-width="20" stroke-linecap="round"/>
<path d="M734.439 203.481C734.439 203.212 728.215 203.074 717.547 204.15C712.997 204.608 710.626 207.377 708.26 212.138C702.521 223.683 700.173 240.917 698.085 261.835C695.53 287.441 697.856 303.552 700.52 306.048C701.845 307.289 704.133 307.097 705.844 306.511C709.239 305.347 715.392 293.888 724.776 275.897C739.971 246.768 743.869 224.937 745.68 216.62C747.057 210.3 751.513 237.805 753.255 253.768C756.681 268.273 763.312 282.596 772.656 295.866C774.581 298.286 775.756 299.627 776.967 301.008" stroke="black" stroke-width="20" stroke-linecap="round"/>
<path d="M810.483 101.528C810.483 140.028 810.483 178.529 810.483 207.789C810.483 237.049 810.483 255.902 809.555 278.901" stroke="black" stroke-width="20" stroke-linecap="round"/>
<path d="M863.273 102.825C863.406 102.691 863.538 102.556 863.711 130.513C863.884 158.47 864.093 214.522 864.434 244.324C864.776 274.125 865.243 275.977 865.725 279.54" stroke="black" stroke-width="20" stroke-linecap="round"/>
<path d="M946.863 182.954C947.145 182.383 953.917 206.29 964.437 243.918C968.77 259.417 972.346 265.894 976.337 272.669C978.258 274.789 979.965 274.232 985.024 260.162C990.082 246.091 998.441 218.523 1007.05 190.12" stroke="black" stroke-width="20" stroke-linecap="round"/>
<path d="M1044.26 190.302C1044.26 188.982 1044.26 212.818 1044.37 250.751C1044.48 264.167 1044.7 265.742 1045.04 267.34C1045.38 268.939 1045.83 270.513 1046.3 273.64" stroke="black" stroke-width="20" stroke-linecap="round"/>
<path d="M1080.76 114.086C1081.36 162.816 1081.95 211.546 1082.75 246.189C1083.54 280.831 1084.51 299.91 1085.18 295.801C1090.35 264.223 1086.94 233.113 1087.81 229.252C1089.68 220.933 1100.44 209.45 1108.32 203.403C1111.44 201.01 1119.09 201.211 1128.62 202.825C1138.45 204.489 1142.89 217.294 1146.64 227.896C1150.98 240.18 1146.92 250.38 1143.08 254.591C1134.09 261.08 1124.96 266.283 1119.75 268.177C1116.12 269.397 1110.48 271.141 1100.85 273.571" stroke="black" stroke-width="20" stroke-linecap="round"/>
<path d="M1174.71 229.118C1196.61 213.969 1207.89 202.662 1207.79 196.376C1207.75 193.591 1207.49 191.635 1205.9 189.887C1202.12 185.748 1193.2 185.136 1183.68 186.81C1174.21 188.475 1169.39 199.524 1165.74 206.741C1160.35 217.423 1161.3 243.914 1163.4 258.041C1164.07 262.567 1168.58 265.844 1173.4 269.086C1185.75 273.488 1192.78 273.941 1200.51 273.701C1204.41 273.461 1208.24 272.981 1212.19 272.487" stroke="black" stroke-width="20" stroke-linecap="round"/>
<path d="M1279.85 194.923C1266.31 189.978 1256.09 187.43 1250.36 188.063C1247.81 188.343 1246.26 189.959 1245.01 191.728C1232.82 209.05 1240.57 245.346 1243.3 254.258C1246.04 263.195 1254.79 272.915 1262.98 281.054C1267.69 285.743 1273.11 285.095 1277.51 284.381C1281.71 282.236 1286.36 278.197 1292.03 271.79C1295.15 267.948 1298.74 262.908 1302.45 257.715" stroke="black" stroke-width="20" stroke-linecap="round"/>
<path d="M1328.07 191.493C1327.26 211.886 1327.86 256.68 1331.55 263.212C1339.38 277.063 1355.48 275.73 1367.36 275.255C1379.14 274.783 1383.34 263.96 1389.91 250.278C1399.42 230.446 1391.95 206.92 1386.75 200.493C1379.57 191.636 1367 190.3 1355.11 188.565C1346.32 188.34 1339.46 189.333 1336.24 191.647C1334.85 192.967 1333.94 194.585 1333.01 196.252" stroke="black" stroke-width="20" stroke-linecap="round"/>
<path d="M1479.87 194.722C1476.67 193.311 1468.74 191.901 1457.02 195.578C1428.03 204.676 1439.23 232.698 1438.97 250.44C1438.89 256.336 1441.34 260.175 1444.55 263.348C1447.62 266.388 1452.52 266.198 1456.63 265.138C1467.52 262.328 1473.75 243.592 1480.34 232.309C1487.64 219.82 1494.09 196.733 1499.45 171.69C1503.12 154.492 1503.03 139.989 1502.36 129.249C1502.16 125.938 1500.36 127.215 1499.29 143.928C1498.22 160.64 1497.45 192.812 1497.19 210.731C1497.2 231.342 1501.69 247.543 1508.15 269C1510.4 277.028 1510.55 279.251 1510.71 281.54" stroke="black" stroke-width="20" stroke-linecap="round"/>
<path d="M1533.95 216.165C1543.7 217.189 1566.63 217.973 1571.16 214.708C1576.21 211.071 1578.71 203.633 1580.62 195.593C1582.64 187.074 1580.09 179.278 1577.64 174.165C1574.03 166.611 1563.88 165 1556.01 164.619C1554.02 164.523 1552.08 165.159 1550.33 166.267C1541.67 171.764 1538.42 185.057 1533.08 200.391C1525.15 223.169 1531.28 253.489 1535.9 260.735C1544.59 265.895 1559.95 269.437 1573.54 270.838C1580.09 271.314 1585.93 271.314 1591.95 271.314" stroke="black" stroke-width="20" stroke-linecap="round"/>
<path d="M1670.33 166.865C1670.08 166.865 1660.08 166.865 1644.43 167.647C1638.61 167.938 1637.28 169.994 1635.13 175.495C1629.41 190.138 1626.1 217.02 1624.73 243.701C1624.23 253.421 1624.74 255.409 1625.49 257.093C1626.93 260.331 1630.25 262.141 1634.2 263.256C1638.99 264.608 1643.77 262.934 1647.13 260.666C1659.31 252.434 1670.5 219.674 1677.97 192.231C1682 177.409 1683.7 160.069 1684.94 143.538C1686.18 127.007 1686.18 111.632 1685.95 102.852C1685.72 94.0733 1685.26 92.356 1685.11 112.921C1684.97 133.486 1685.15 176.386 1686.94 203.186C1698.34 253.921 1707.09 268.619 1712.88 276.48C1715.38 279.48 1717.01 280.473 1718.68 281.496" stroke="black" stroke-width="20" stroke-linecap="round"/>
<path d="M1031.38 135.522L1035.49 140.451" stroke="black" stroke-width="20" stroke-linecap="round"/>
<path d="M1755.16 96.5681V189.825" stroke="black" stroke-width="20" stroke-linecap="round"/>
<path d="M1752.77 246.962C1752.77 246.83 1752.77 246.697 1753.98 248.64C1755.18 250.583 1757.59 254.605 1761.58 259.753" stroke="black" stroke-width="20" stroke-linecap="round"/>
<path d="M1887.85 191.607C1888.87 234.081 1890.77 260.328 1893.56 267.654C1894.72 270.714 1896.34 272.027 1898.63 272.846C1900.91 273.665 1904.06 273.845 1908.69 268.153C1921.51 252.417 1926.92 233.582 1929.19 223.582C1931.05 215.391 1930.89 202.301 1930.5 189.373C1929.71 199.5 1930.22 223.669 1935.34 244.512C1937.09 250.213 1939 255.03 1940.96 259.992" stroke="black" stroke-width="20" stroke-linecap="round"/>
<path d="M2003.21 187.2C2003.21 186.935 1997.18 186.798 1987.27 187.318C1983.37 187.523 1981.86 188.876 1979.8 192.938C1974.38 203.668 1972.64 218.379 1973.6 230.627C1974.95 247.837 2001.06 256.812 2009.75 264.058C2011.3 265.349 2010.71 268.179 2009.45 270.626C2005.51 275.626 2000.48 279.398 1996.21 281.406C1994.19 282.272 1992.49 282.826 1990.73 283.397" stroke="black" stroke-width="20" stroke-linecap="round"/>
<path d="M2030.91 228.066C2050.32 224.206 2061.74 220.185 2064.28 216.255C2066.47 212.849 2067.3 208.218 2067.89 203.295C2068.16 201.059 2068.09 199.331 2066.04 197.575C2060.65 192.973 2051.7 192.291 2045.14 192.886C2036.53 193.666 2034.9 212.666 2033.93 226.164C2032.81 241.826 2036.09 267.833 2043.64 276.764C2054.59 282.186 2083.89 286.049 2101 285.026C2102.83 284.179 2104.51 282.979 2106.24 281.742" stroke="black" stroke-width="20" stroke-linecap="round"/>
<path d="M2232.37 214.245C2226.8 211.108 2212.47 203.355 2205.63 197.033C2201.36 193.09 2193.17 192.557 2185.84 193.136C2175.33 193.965 2171.27 217.84 2166.07 244.205C2164.71 251.132 2165.32 257.533 2166.18 261.294C2167.04 265.055 2168.75 266.077 2170.63 266.798C2174.37 268.239 2178.48 268.309 2182.6 267.677C2195.49 265.696 2205.49 240.502 2221.43 201.683C2224.06 195.275 2226.7 197.951 2227.97 204.558C2229.86 222.023 2231.25 236.608 2232.71 242.652C2233.42 245.298 2234.07 247.089 2234.74 248.935" stroke="black" stroke-width="20" stroke-linecap="round"/>
<path d="M2261.37 127.784C2261.65 161.048 2261.93 194.312 2262.18 213.996C2262.44 233.68 2262.64 238.776 2262.85 242.626C2263.05 246.476 2263.25 248.926 2264.82 255.795" stroke="black" stroke-width="20" stroke-linecap="round"/>
<path d="M2247.39 165.133C2247.27 165.133 2247.14 165.133 2253.99 165.538C2260.85 165.942 2274.69 166.751 2288.95 167.585" stroke="black" stroke-width="20" stroke-linecap="round"/>
<path d="M2366.89 196.406C2373.41 233.368 2378.92 256.267 2384.09 261.774C2386.44 264.282 2390.92 262.744 2393.71 260.646C2404.39 252.592 2407.89 215.842 2411.14 184.838C2410.41 185.895 2409.83 191.045 2409.53 220.713C2409.23 248.463 2408.63 301.987 2408.01 357.133" stroke="black" stroke-width="20" stroke-linecap="round"/>
<path d="M2454.49 200.18C2454.49 247.681 2454.94 260.479 2458.67 266.635C2461.22 270.836 2473.15 271 2487.15 269.432C2492.98 268.778 2495.74 265.577 2498.03 261.892C2502.97 253.964 2503.43 241.097 2502.15 227.784C2501.13 217.153 2494.01 209.993 2488.42 204.541C2477.35 198.35 2464.83 195.829 2457.08 196.16C2453.96 196.491 2452.46 197.153 2450.92 197.836" stroke="black" stroke-width="20" stroke-linecap="round"/>
<path d="M2529.11 195.748C2529.53 218.445 2531.84 267.151 2534.91 270.165C2536.34 271.569 2538.24 271.87 2540.22 272.133C2542.2 272.396 2544.39 272.396 2546.37 270.488C2566.63 250.937 2565.64 205.834 2569 199.513C2569.69 198.209 2571.9 198.704 2573.96 201.201C2581.28 215.304 2588.12 231.255 2597.69 251.346C2601.34 258.683 2602.55 260.219 2603.79 261.8" stroke="black" stroke-width="20" stroke-linecap="round"/>
<path d="M2626.6 207.679C2626.33 207.41 2629.02 231.093 2633.58 257.057C2641.24 300.657 2641.92 198.132 2649.67 188.463C2657.75 182.6 2665.92 178.378 2672.97 176.845C2676.81 176.324 2681.19 176.324 2685.69 176.324" stroke="black" stroke-width="20" stroke-linecap="round"/>
<path d="M2782.09 188.34C2781.86 211.411 2781.63 261.585 2782.61 265.133C2783.89 269.724 2791.23 274.498 2801.07 278.639C2808.98 281.967 2814.76 279.604 2817.37 277.562C2824.77 271.761 2829.47 258.184 2834.44 230.602C2835.93 222.327 2834.34 214.425 2831.21 203.818C2827.97 192.859 2816.66 184.807 2808 178.027C2802.79 174.957 2797.63 174.365 2791.56 175.183C2788.9 176.001 2787.07 177.638 2783.42 181.694" stroke="black" stroke-width="20" stroke-linecap="round"/>
<path d="M2852.17 187.355C2857.81 229.452 2863.11 252.21 2867.63 253.442C2869.68 254.001 2871.52 252.817 2873.49 249.825C2886.77 229.661 2888.79 196.865 2893.21 186.801C2893.83 185.403 2896.31 186.147 2898.38 188.62C2915.78 209.453 2924.11 245.031 2930.94 255.981C2935.31 260.526 2939.78 234.357 2944.38 192.936C2946.09 178.322 2946.56 176.712 2947.54 171.699" stroke="black" stroke-width="20" stroke-linecap="round"/>
<path d="M2978.17 184.622C2977.73 200.929 2978.1 237.565 2978.8 239.209C2985.36 254.615 2981.34 192.107 2985.25 185.13C2988.91 178.585 2999.84 176.472 3009.09 176.325C3023.45 176.097 3020.56 211.735 3027.33 234.215C3031.23 242.957 3036.21 251.313 3041.54 258.894C3043.88 261.824 3045.46 262.891 3047.09 263.991" stroke="black" stroke-width="20" stroke-linecap="round"/>
<path d="M3125.03 187.476C3125.03 226.084 3125.03 254.552 3125.03 259.567C3125.03 298.674 3129.23 205.907 3135.62 189.917C3138.02 183.91 3141.83 180.677 3145.29 178.624C3147.18 177.747 3149.34 177.202 3152.62 176.831C3155.91 176.46 3160.24 176.278 3164.7 176.09" stroke="black" stroke-width="20" stroke-linecap="round"/>
<path d="M3199.21 181.351V251.711" stroke="black" stroke-width="20" stroke-linecap="round"/>
<path d="M3268.88 174.328C3252.48 174.746 3240.65 176.807 3234.74 180.189C3230.48 182.627 3228.26 185.607 3227.09 189.975C3225.28 196.788 3229.36 205.181 3234.89 211.959C3244.52 223.742 3273.36 226.585 3287.89 231.214C3291.63 232.406 3290.32 238.635 3289.57 242.269C3289.02 243.949 3288.12 245.298 3286.21 247.431C3284.31 249.564 3281.43 252.44 3278.46 255.403" stroke="black" stroke-width="20" stroke-linecap="round"/>
<path d="M3314.26 133.832C3317.48 176.16 3320.7 218.489 3322.65 242.981C3324.59 267.473 3325.16 272.846 3326.16 280.301" stroke="black" stroke-width="20" stroke-linecap="round"/>
<path d="M3366.69 166.334C3329.31 195.697 3324.04 202.24 3320.12 209.416C3319.25 211.016 3321.79 213.244 3323.85 214.804C3328.43 217.412 3351.96 223.173 3384.39 230.656C3395.89 233.459 3397.32 234.243 3399.21 236.381" stroke="black" stroke-width="20" stroke-linecap="round"/>
<path d="M3181.37 133.16L3186.58 133.662" stroke="black" stroke-width="20" stroke-linecap="round"/>
</g>
<defs>
<clipPath id="clip0_1476_46290">
<rect width="3556" height="357" fill="white"/>
</clipPath>
</defs>
</svg>
