<svg width="3556" height="413" viewBox="0 0 3556 413" fill="none" xmlns="http://www.w3.org/2000/svg">
<rect width="3556" height="413" fill="white"/>
<path d="M90.8534 97.9888C90.8534 97.8525 90.8534 97.7162 90.8534 130.152C90.8534 162.589 90.8534 227.601 90.997 255.1C91.1407 282.599 91.428 270.614 93.0754 260.344C98.7557 224.935 116.844 208.417 125.415 201.68C129.492 198.474 135.418 198.886 140.329 199.623C150.5 201.15 156.157 220.36 160.514 232.868C163.851 242.447 150.309 254.268 132.494 269.791C121.65 276.287 106.75 280.8 94.4597 282.128C87.9239 282.58 80.7811 282.58 73.4219 282.58" stroke="black" stroke-width="20" stroke-linecap="round"/>
<path d="M172.008 233.132C184.255 230.492 210.555 221.274 214.079 214.568C216.313 210.316 215.572 205.438 214.52 200.536C213.618 196.333 208.867 194.836 205.06 193.423C200.055 191.565 194.863 191.641 191.025 192.601C179.197 195.561 180.016 239.035 184.976 263.787C185.625 267.021 187.393 268.367 188.669 269.576C189.945 270.786 191.505 271.536 197.734 271.923C203.963 272.31 214.813 272.31 229.043 271.28" stroke="black" stroke-width="20" stroke-linecap="round"/>
<path d="M241.129 205.171C252.286 246.058 254.337 253.991 256.979 257.969C258.031 259.554 260.103 258.831 261.381 256.21C272.556 233.3 279.241 201.251 284.06 195.917C291.362 187.835 297.071 216.793 316.459 259.556C320.55 268.581 321.58 270.126 322.447 270.22C326.455 250.78 331.469 208.083 334.186 198.112C334.685 196.317 335.02 194.549 336.294 188.991" stroke="black" stroke-width="20" stroke-linecap="round"/>
<path d="M395.44 212.358C392.558 200.06 389.497 193.05 385.853 192.027C383.836 191.46 381.278 191.679 379.093 192.174C368.436 194.587 361.869 225.642 356.825 255.176C355.547 262.661 356.262 270.923 357.111 275.578C357.96 280.234 359.659 281.123 361.646 281.581C363.634 282.039 365.859 282.039 367.971 281.171C385.436 273.992 397.944 231.548 402.36 218.068C402.987 216.155 403.553 214.318 404.066 214.163C405.379 227.579 406.859 261.095 414.137 282.775C416.282 286.959 418.32 289.61 420.421 292.341" stroke="black" stroke-width="20" stroke-linecap="round"/>
<path d="M446.672 206.213C446.672 204.598 446.672 227.942 446.672 261.168C446.672 273.433 451.655 230.667 463.302 210.639C468.944 200.936 473.859 195.606 476.737 192.668C479.456 189.893 483.905 189.169 488.398 189.681C490.374 190.193 491.732 191.216 493.775 193.437C495.817 195.657 498.501 199.044 501.267 202.534" stroke="black" stroke-width="20" stroke-linecap="round"/>
<path d="M506.073 239.938C505.813 239.938 512.734 239.724 524.7 238.76C532.412 238.139 536.838 232.744 540.347 227.563C545.83 219.469 544.705 207.01 542.014 197.722C540.392 192.122 533.771 190.264 529.749 188.847C527.542 188.069 524.717 188.12 522.449 189.098C517.814 191.099 514.422 201.169 510.426 219.56C504.446 247.085 507.496 265.945 509.356 269.199C514.221 277.716 522.207 281.789 532.956 283.922C539.801 283.906 546.678 281.095 552.135 276.601C554.366 274.696 555.504 273.555 559.258 269.145" stroke="black" stroke-width="20" stroke-linecap="round"/>
<path d="M600.887 202.806L604.134 218.096" stroke="black" stroke-width="20" stroke-linecap="round"/>
<path d="M594.727 261.03C596.484 264.014 598.241 266.998 599.613 269.246C600.985 271.495 601.918 272.917 603.299 274.801" stroke="black" stroke-width="20" stroke-linecap="round"/>
<path d="M743.408 201.396C743.408 201.123 737.1 200.983 726.287 202.073C721.676 202.538 719.272 205.345 716.874 210.17C711.057 221.871 708.677 239.34 706.561 260.542C703.971 286.495 706.329 302.825 709.029 305.355C710.372 306.613 712.691 306.418 714.426 305.824C717.866 304.645 724.102 293.03 733.614 274.794C749.015 245.27 752.966 223.143 754.802 214.713C756.198 208.307 760.714 236.185 762.48 252.365C765.952 267.067 772.673 281.584 782.144 295.034C784.095 297.487 785.286 298.846 786.514 300.246" stroke="black" stroke-width="20" stroke-linecap="round"/>
<path d="M820.483 98.0588C820.483 137.082 820.483 176.105 820.483 205.762C820.483 235.42 820.483 254.529 819.543 277.839" stroke="black" stroke-width="20" stroke-linecap="round"/>
<path d="M873.992 99.3741C874.126 99.2378 874.261 99.1015 874.436 127.438C874.611 155.774 874.823 212.587 875.169 242.793C875.515 272.999 875.989 274.876 876.477 278.487" stroke="black" stroke-width="20" stroke-linecap="round"/>
<path d="M958.719 180.59C959.004 180.011 965.868 204.243 976.531 242.381C980.923 258.09 984.547 264.656 988.593 271.523C990.539 273.671 992.269 273.107 997.397 258.846C1002.52 244.584 1011 216.642 1019.73 187.853" stroke="black" stroke-width="20" stroke-linecap="round"/>
<path d="M1057.43 188.038C1057.43 186.7 1057.43 210.859 1057.55 249.307C1057.66 262.906 1057.89 264.502 1058.23 266.122C1058.57 267.742 1059.03 269.338 1059.5 272.507" stroke="black" stroke-width="20" stroke-linecap="round"/>
<path d="M1094.43 110.788C1095.04 160.179 1095.64 209.57 1096.44 244.683C1097.25 279.796 1098.23 299.133 1098.91 294.969C1104.15 262.962 1100.7 231.43 1101.58 227.517C1103.47 219.084 1114.38 207.446 1122.37 201.317C1125.53 198.891 1133.29 199.096 1142.94 200.731C1152.9 202.418 1157.41 215.396 1161.21 226.142C1165.61 238.593 1161.49 248.931 1157.59 253.199C1148.48 259.777 1139.23 265.05 1133.95 266.97C1130.27 268.206 1124.56 269.974 1114.79 272.437" stroke="black" stroke-width="20" stroke-linecap="round"/>
<path d="M1189.66 227.381C1211.85 212.026 1223.28 200.565 1223.18 194.194C1223.14 191.372 1222.88 189.389 1221.27 187.618C1217.44 183.422 1208.39 182.802 1198.75 184.498C1189.15 186.186 1184.26 197.385 1180.57 204.7C1175.1 215.527 1176.07 242.377 1178.19 256.696C1178.87 261.283 1183.44 264.606 1188.33 267.891C1200.84 272.353 1207.97 272.812 1215.81 272.569C1219.76 272.326 1223.64 271.839 1227.65 271.338" stroke="black" stroke-width="20" stroke-linecap="round"/>
<path d="M1296.22 192.722C1282.5 187.71 1272.14 185.128 1266.33 185.768C1263.75 186.053 1262.18 187.69 1260.91 189.484C1248.55 207.041 1256.41 243.829 1259.18 252.862C1261.95 261.921 1270.82 271.772 1279.12 280.021C1283.9 284.774 1289.39 284.118 1293.85 283.393C1298.1 281.22 1302.82 277.126 1308.57 270.632C1311.73 266.738 1315.37 261.629 1319.13 256.366" stroke="black" stroke-width="20" stroke-linecap="round"/>
<path d="M1345.1 189.245C1344.27 209.915 1344.89 255.317 1348.63 261.938C1356.56 275.976 1372.88 274.625 1384.92 274.144C1396.86 273.666 1401.12 262.696 1407.77 248.828C1417.41 228.727 1409.85 204.882 1404.57 198.367C1397.29 189.39 1384.55 188.036 1372.5 186.277C1363.6 186.049 1356.64 187.056 1353.38 189.401C1351.97 190.739 1351.05 192.379 1350.11 194.069" stroke="black" stroke-width="20" stroke-linecap="round"/>
<path d="M1498.96 192.518C1495.72 191.088 1487.67 189.659 1475.8 193.385C1446.41 202.607 1457.77 231.009 1457.51 248.992C1457.42 254.968 1459.91 258.859 1463.16 262.075C1466.27 265.157 1471.24 264.964 1475.4 263.889C1486.44 261.041 1492.75 242.051 1499.44 230.615C1506.84 217.957 1513.38 194.556 1518.8 169.173C1522.52 151.742 1522.43 137.042 1521.76 126.156C1521.55 122.8 1519.73 124.095 1518.64 141.034C1517.56 157.974 1516.78 190.582 1516.52 208.744C1516.53 229.635 1521.08 246.056 1527.63 267.804C1529.9 275.941 1530.06 278.194 1530.22 280.514" stroke="black" stroke-width="20" stroke-linecap="round"/>
<path d="M1553.77 214.252C1563.65 215.29 1586.9 216.085 1591.49 212.776C1596.6 209.089 1599.14 201.549 1601.07 193.401C1603.12 184.766 1600.54 176.864 1598.06 171.682C1594.39 164.025 1584.11 162.392 1576.13 162.006C1574.12 161.909 1572.15 162.554 1570.38 163.677C1561.6 169.248 1558.3 182.722 1552.89 198.264C1544.86 221.351 1551.06 252.083 1555.75 259.427C1564.56 264.656 1580.12 268.246 1593.9 269.667C1600.53 270.15 1606.45 270.15 1612.55 270.15" stroke="black" stroke-width="20" stroke-linecap="round"/>
<path d="M1692 164.283C1691.75 164.283 1681.61 164.283 1665.75 165.076C1659.85 165.371 1658.5 167.454 1656.33 173.03C1650.53 187.872 1647.17 215.118 1645.78 242.162C1645.28 252.013 1645.8 254.029 1646.56 255.735C1648.02 259.017 1651.37 260.852 1655.38 261.982C1660.23 263.353 1665.08 261.656 1668.48 259.357C1680.84 251.014 1692.17 217.809 1699.74 189.993C1703.83 174.97 1705.55 157.394 1706.81 140.639C1708.06 123.884 1708.06 108.3 1707.83 99.4016C1707.6 90.5034 1707.13 88.7628 1706.98 109.607C1706.84 130.451 1707.02 173.933 1708.84 201.097C1720.4 252.52 1729.26 267.418 1735.13 275.385C1737.67 278.426 1739.31 279.433 1741.01 280.47" stroke="black" stroke-width="20" stroke-linecap="round"/>
<path d="M1044.38 132.515L1048.54 137.51" stroke="black" stroke-width="20" stroke-linecap="round"/>
<path d="M1777.98 93.032V187.555" stroke="black" stroke-width="20" stroke-linecap="round"/>
<path d="M1775.56 245.467C1775.56 245.333 1775.56 245.198 1776.78 247.168C1778 249.137 1780.44 253.214 1784.48 258.431" stroke="black" stroke-width="20" stroke-linecap="round"/>
<path d="M1912.48 189.361C1913.51 232.411 1915.44 259.015 1918.26 266.44C1919.44 269.541 1921.08 270.872 1923.4 271.702C1925.72 272.532 1928.9 272.715 1933.6 266.945C1946.59 250.996 1952.08 231.905 1954.38 221.77C1956.26 213.467 1956.1 200.199 1955.7 187.097C1954.9 197.361 1955.42 221.858 1960.61 242.984C1962.39 248.762 1964.31 253.644 1966.3 258.674" stroke="black" stroke-width="20" stroke-linecap="round"/>
<path d="M2029.4 184.894C2029.4 184.625 2023.29 184.487 2013.25 185.013C2009.29 185.221 2007.76 186.592 2005.68 190.71C2000.18 201.585 1998.41 216.496 1999.39 228.91C2000.75 246.354 2027.22 255.451 2036.03 262.795C2037.6 264.103 2037 266.971 2035.72 269.452C2031.73 274.52 2026.64 278.343 2022.3 280.378C2020.26 281.256 2018.53 281.818 2016.75 282.397" stroke="black" stroke-width="20" stroke-linecap="round"/>
<path d="M2057.48 226.315C2077.15 222.402 2088.73 218.326 2091.3 214.343C2093.52 210.891 2094.36 206.197 2094.96 201.207C2095.23 198.941 2095.16 197.19 2093.08 195.41C2087.62 190.745 2078.55 190.054 2071.9 190.657C2063.17 191.448 2061.52 210.705 2060.54 224.387C2059.4 240.261 2062.73 266.621 2070.38 275.673C2081.47 281.169 2111.18 285.084 2128.52 284.047C2130.37 283.189 2132.07 281.972 2133.82 280.719" stroke="black" stroke-width="20" stroke-linecap="round"/>
<path d="M2261.67 212.305C2256.03 209.127 2241.51 201.268 2234.57 194.86C2230.24 190.864 2221.94 190.324 2214.51 190.91C2203.86 191.751 2199.74 215.95 2194.48 242.672C2193.09 249.693 2193.72 256.182 2194.58 259.994C2195.45 263.806 2197.19 264.842 2199.09 265.572C2202.89 267.033 2207.05 267.104 2211.22 266.463C2224.29 264.456 2234.43 238.919 2250.58 199.574C2253.25 193.078 2255.93 195.791 2257.21 202.488C2259.13 220.19 2260.54 234.972 2262.02 241.098C2262.74 243.78 2263.39 245.596 2264.07 247.467" stroke="black" stroke-width="20" stroke-linecap="round"/>
<path d="M2291.06 124.671C2291.35 158.387 2291.63 192.102 2291.89 212.053C2292.14 232.004 2292.35 237.169 2292.56 241.072C2292.77 244.974 2292.97 247.457 2294.56 254.419" stroke="black" stroke-width="20" stroke-linecap="round"/>
<path d="M2276.9 162.527C2276.77 162.527 2276.64 162.527 2283.59 162.937C2290.53 163.347 2304.56 164.167 2319.02 165.012" stroke="black" stroke-width="20" stroke-linecap="round"/>
<path d="M2398.01 194.225C2404.63 231.688 2410.21 254.898 2415.44 260.48C2417.83 263.022 2422.37 261.463 2425.19 259.337C2436.03 251.173 2439.57 213.924 2442.86 182.5C2442.12 183.571 2441.54 188.791 2441.23 218.862C2440.93 246.988 2440.32 301.239 2439.69 357.133" stroke="black" stroke-width="20" stroke-linecap="round"/>
<path d="M2486.81 198.05C2486.81 246.195 2487.26 259.167 2491.05 265.407C2493.63 269.665 2505.72 269.831 2519.9 268.241C2525.81 267.579 2528.61 264.334 2530.94 260.6C2535.94 252.564 2536.41 239.522 2535.11 226.029C2534.07 215.253 2526.86 207.996 2521.19 202.47C2509.98 196.195 2497.28 193.64 2489.43 193.976C2486.26 194.311 2484.75 194.982 2483.18 195.674" stroke="black" stroke-width="20" stroke-linecap="round"/>
<path d="M2562.44 193.558C2562.87 216.563 2565.21 265.93 2568.32 268.985C2569.77 270.408 2571.69 270.713 2573.7 270.979C2575.7 271.246 2577.93 271.246 2579.93 269.312C2600.47 249.496 2599.46 203.78 2602.87 197.374C2603.57 196.052 2605.81 196.554 2607.9 199.085C2615.32 213.379 2622.24 229.546 2631.95 249.91C2635.65 257.347 2636.87 258.903 2638.13 260.507" stroke="black" stroke-width="20" stroke-linecap="round"/>
<path d="M2661.25 205.651C2660.98 205.378 2663.7 229.382 2668.32 255.699C2676.09 299.89 2676.78 195.974 2684.63 186.174C2692.83 180.232 2701.1 175.952 2708.25 174.398C2712.14 173.87 2716.58 173.87 2721.14 173.87" stroke="black" stroke-width="20" stroke-linecap="round"/>
<path d="M2818.85 186.049C2818.62 209.434 2818.38 260.288 2819.38 263.885C2820.67 268.538 2828.12 273.376 2838.09 277.574C2846.1 280.946 2851.97 278.552 2854.61 276.482C2862.11 270.602 2866.88 256.841 2871.91 228.885C2873.42 220.498 2871.81 212.488 2868.63 201.738C2865.36 190.63 2853.89 182.469 2845.11 175.597C2839.83 172.485 2834.6 171.884 2828.45 172.713C2825.75 173.543 2823.9 175.202 2820.2 179.313" stroke="black" stroke-width="20" stroke-linecap="round"/>
<path d="M2889.88 185.051C2895.6 227.719 2900.97 250.786 2905.55 252.034C2907.63 252.602 2909.5 251.402 2911.49 248.369C2924.95 227.931 2927 194.69 2931.48 184.489C2932.1 183.073 2934.62 183.826 2936.72 186.333C2954.35 207.449 2962.79 243.51 2969.72 254.608C2974.15 259.215 2978.68 232.691 2983.34 190.708C2985.08 175.895 2985.55 174.264 2986.55 169.183" stroke="black" stroke-width="20" stroke-linecap="round"/>
<path d="M3017.59 182.281C3017.14 198.81 3017.52 235.942 3018.23 237.608C3024.88 253.224 3020.81 189.867 3024.77 182.795C3028.48 176.162 3039.56 174.02 3048.93 173.871C3063.49 173.64 3060.55 209.762 3067.41 232.547C3071.37 241.407 3076.42 249.877 3081.82 257.561C3084.19 260.53 3085.79 261.612 3087.45 262.727" stroke="black" stroke-width="20" stroke-linecap="round"/>
<path d="M3166.44 185.174C3166.44 224.306 3166.44 253.159 3166.44 258.242C3166.44 297.88 3170.7 203.854 3177.17 187.648C3179.61 181.559 3183.48 178.282 3186.98 176.201C3188.89 175.312 3191.09 174.761 3194.41 174.384C3197.74 174.008 3202.13 173.823 3206.66 173.633" stroke="black" stroke-width="20" stroke-linecap="round"/>
<path d="M3241.64 178.965V250.28" stroke="black" stroke-width="20" stroke-linecap="round"/>
<path d="M3312.24 171.847C3295.62 172.271 3283.63 174.36 3277.64 177.788C3273.33 180.259 3271.08 183.279 3269.89 187.706C3268.05 194.612 3272.18 203.118 3277.8 209.989C3287.56 221.932 3316.79 224.813 3331.51 229.505C3335.3 230.713 3333.98 237.027 3333.22 240.71C3332.66 242.413 3331.75 243.781 3329.82 245.942C3327.88 248.104 3324.97 251.019 3321.96 254.023" stroke="black" stroke-width="20" stroke-linecap="round"/>
<path d="M3358.24 130.801C3361.51 173.704 3364.77 216.607 3366.74 241.432C3368.71 266.256 3369.29 271.702 3370.3 279.258" stroke="black" stroke-width="20" stroke-linecap="round"/>
<path d="M3411.38 163.745C3373.49 193.506 3368.16 200.138 3364.18 207.412C3363.3 209.033 3365.88 211.291 3367.96 212.872C3372.6 215.516 3396.45 221.355 3429.33 228.94C3440.98 231.781 3442.43 232.576 3444.35 234.742" stroke="black" stroke-width="20" stroke-linecap="round"/>
<path d="M3223.55 130.121L3228.83 130.629" stroke="black" stroke-width="20" stroke-linecap="round"/>
</svg>
