<svg width="3556" height="1473" viewBox="0 0 3556 1473" fill="none" xmlns="http://www.w3.org/2000/svg">
<rect width="3556" height="1473" fill="white"/>
<path d="M990.885 169C1011.79 167.89 1027.44 167.296 1037.36 166.987C1041.4 166.331 1045.5 165.75 1050.66 165.076C1063.07 163.188 1088.39 161.384 1115.32 162.113C1127 162.429 1130.85 162.27 1134.27 163.592C1146.42 168.287 1173.44 184.946 1186.65 193.676C1190.08 195.948 1214.12 206.009 1246.8 222.576C1261.94 230.246 1270.4 234.946 1281.66 244.301C1297.27 257.269 1315.2 270.186 1329.62 279.504C1337.94 284.884 1344.45 288.226 1349.2 294.289C1359.74 307.764 1367.87 320.501 1376.9 330.435C1385.66 340.077 1406.84 352.678 1439.54 377.688C1451.68 386.977 1462.58 398.306 1479.87 436.753C1493.41 466.861 1515.28 517.599 1525.55 544.433C1536.61 573.336 1537.45 583.854 1536.75 596.628C1536.41 602.986 1535.74 613.536 1529.88 626.472C1522.83 642.023 1511.56 659.372 1498.91 670.509C1493.05 675.669 1487.39 679.499 1469.44 690.85C1460.32 696.613 1437.94 708.689 1408.1 721.054C1396.67 725.792 1392.01 726.847 1359.03 736.822L1353.92 738.367C1320.19 748.566 1264.9 765.283 1235.9 774.795C1203.56 785.402 1191.11 792.558 1175.35 807.72C1162.05 820.514 1146.55 837.591 1119.38 855.514C1103.92 865.716 1084.18 876.562 1071.55 881.811C1058.92 887.06 1053.57 886.722 1035.42 882.881C1017.27 879.04 987.239 871.912 962.142 864.329C937.045 856.745 917.333 849.251 905.623 843.907C889.753 836.664 877.426 831.879 870.857 820.209C864.475 808.874 857.65 777.735 864.611 749.662C866.248 743.058 871.375 727.475 873.939 699.089C875.305 683.968 876.022 667.272 874.72 654.185C871.396 620.76 871.391 614.069 866.299 600.546C860.761 585.842 851.156 576.217 831.713 532.636C823.88 515.079 824.047 503.389 820.529 497.785L820.372 497.535C814.123 487.583 805.521 473.884 806.926 442.293C807.343 432.916 807.195 427.017 811.106 399.002C814.593 374.023 820.39 328.352 826.158 301.675C833.692 266.831 838.609 254.352 845.663 245.365C854.842 233.67 867.152 220.073 882.45 209.425C896.127 199.905 916.294 187.748 944.871 178.373C959.101 173.706 973.294 169.934 990.885 169Z" fill="white"/>
<path d="M1049.96 166.674C1049.21 166.674 1028.62 166.997 990.885 169C973.294 169.934 959.101 173.706 944.871 178.373C916.294 187.748 896.127 199.905 882.45 209.425C867.152 220.073 854.842 233.67 845.663 245.365C838.609 254.352 833.692 266.831 826.158 301.675C820.39 328.352 814.593 374.023 811.106 399.002C807.195 427.017 807.343 432.916 806.926 442.293C805.509 474.15 814.268 487.813 820.529 497.785C824.047 503.389 823.88 515.079 831.713 532.636C851.156 576.217 860.761 585.842 866.299 600.546C871.391 614.069 871.396 620.76 874.72 654.185C876.022 667.272 875.305 683.968 873.939 699.089C871.375 727.475 866.248 743.058 864.611 749.662C857.65 777.735 864.475 808.874 870.857 820.209C877.426 831.879 889.753 836.664 905.623 843.907C917.333 849.251 937.045 856.745 962.142 864.329C987.239 871.912 1017.27 879.04 1035.42 882.881C1053.57 886.722 1058.92 887.06 1071.55 881.811C1084.18 876.562 1103.92 865.716 1119.38 855.514C1146.55 837.591 1162.05 820.514 1175.35 807.72C1191.11 792.558 1203.56 785.402 1235.9 774.795C1266.41 764.785 1326.04 746.798 1359.03 736.822C1392.01 726.847 1396.67 725.792 1408.1 721.054C1437.94 708.689 1460.32 696.613 1469.44 690.85C1487.39 679.499 1493.05 675.669 1498.91 670.509C1511.56 659.372 1522.83 642.023 1529.88 626.472C1535.74 613.536 1536.41 602.986 1536.75 596.628C1537.45 583.854 1536.61 573.336 1525.55 544.433C1515.28 517.599 1493.41 466.861 1479.87 436.753C1462.58 398.306 1451.68 386.977 1439.54 377.688C1406.84 352.678 1385.66 340.077 1376.9 330.435C1367.87 320.501 1359.74 307.764 1349.2 294.289C1344.45 288.226 1337.94 284.884 1329.62 279.504C1315.2 270.186 1297.27 257.269 1281.66 244.301C1270.4 234.946 1261.94 230.246 1246.8 222.576C1214.12 206.009 1190.08 195.948 1186.65 193.676C1173.44 184.946 1146.42 168.287 1134.27 163.592C1130.85 162.27 1127 162.429 1115.32 162.113C1088.39 161.384 1063.07 163.188 1050.66 165.076C1043.79 165.973 1038.8 166.706 1033.32 167.671C1030.77 168.103 1028.71 168.416 1023.95 169.557" stroke="black" stroke-width="30" stroke-linecap="round"/>
<path d="M1014.31 289.564C1036.15 283.391 1075.47 280.42 1088.14 280.42L1074.66 277.259C1079.27 276.328 1081.07 275.849 1083.39 275.084C1095.55 272.281 1108.5 273 1120.96 277.495C1129.22 281.681 1137.21 283.388 1146.56 289.372C1159 297.344 1175.4 307.454 1186.96 322.806C1196.99 336.114 1208.87 353.827 1219.96 373.153C1230.17 390.937 1236.99 402.762 1240.05 408.774C1244.12 416.765 1250.52 450.795 1243.55 471.808C1236.79 492.17 1228.53 504.801 1219.59 517.144C1210.24 530.043 1208.02 538.204 1197.37 547.425C1185.1 558.049 1168.51 569.745 1160.88 572.576C1152.93 575.524 1140.59 581.897 1116.01 581.933C1078.5 581.987 1052.48 581.999 1047.79 581.225C1026.23 577.665 987.034 572.204 967.461 556.721C957.082 548.512 947.443 539.396 931.314 515.031C921.567 500.306 902.552 474.486 908.819 439.093C911.864 421.899 916.12 407.146 926.33 391.168C942.555 365.777 954.391 345.733 961.195 336.317C968.964 325.565 975.426 316.631 980.79 312.011C991.237 303.014 1002.98 292.766 1014.31 289.564Z" fill="#FFC927" stroke="black" stroke-width="30" stroke-linecap="round" stroke-linejoin="round"/>
<path d="M1031.63 430.831L1032.05 432.998" stroke="black" stroke-width="30" stroke-linecap="round"/>
<path d="M1099.86 402.189V408.181" stroke="black" stroke-width="30" stroke-linecap="round"/>
<path d="M1031.63 492.017C1033.43 492.339 1038.54 494.072 1046.76 498.768C1052.15 501.841 1058.49 504.266 1070.13 507.559C1081.55 510.788 1087.12 509.963 1091.99 510.412C1101.96 511.334 1117.32 510.551 1126.2 509C1132.75 507.858 1140.09 503.47 1145.93 499.276C1149.78 496.509 1160.6 488.609 1170.88 480.946C1178.33 473.439 1183.03 466.201 1186.33 460.35C1187.03 459.216 1187.75 458.302 1189.37 455.647" stroke="black" stroke-width="30" stroke-linecap="round"/>
<path d="M1839.86 384.364C1815.43 393.657 1747.96 376.413 1718.41 366.479C1714 327.719 1713.69 289.688 1725.91 268.105C1740.01 243.19 1784.06 185.145 1832.36 195.146C1846.56 198.088 1859.65 200.163 1866.46 210.747C1884.29 238.457 1895.06 295.982 1879.11 334.958C1872.11 352.052 1861.17 376.264 1839.86 384.364Z" fill="white"/>
<path d="M1714.34 365.072C1741.23 374.656 1814.23 394.113 1839.86 384.364C1861.17 376.264 1872.11 352.052 1879.11 334.958C1895.06 295.982 1884.29 238.457 1866.46 210.747C1859.65 200.163 1846.56 198.088 1832.36 195.146C1784.06 185.145 1740.01 243.19 1725.91 268.105C1707.05 301.424 1718.05 373.938 1727.86 427.824C1734.57 464.673 1763.74 487.484 1792.84 519.677C1811.47 540.293 1847.1 544.369 1879.95 542.006C1900.84 524.989 1915.02 500.926 1931.05 477.303C1935.74 471.527 1940.94 465.794 1946.29 459.887" stroke="black" stroke-width="30" stroke-linecap="round"/>
<path d="M2151.64 210.701C2147.04 207.832 2139.54 201.743 2129.07 193.95C2119.63 186.925 2101.86 187.485 2082.05 190.196C2041.14 195.796 2025.25 251.761 2012.14 298.447C1990.17 376.675 2006.75 470.626 2021.95 495.32C2033.01 513.288 2065.23 516.356 2105.04 514.533C2129.2 482.282 2160.03 373.322 2179.77 289.86C2181.58 276.435 2181.58 262.936 2181.58 249.029" stroke="black" stroke-width="30" stroke-linecap="round"/>
<path d="M2181.59 170.407C2181.59 217.596 2181.59 264.786 2181.87 355.559C2182.16 446.333 2182.72 579.259 2183.36 650.208C2184.05 726.105 2186.04 757.048 2184.42 799.257C2182.86 839.739 2128.26 855.402 2084.43 875.806C2061.37 886.538 2040.13 887.29 2024.17 884.121C1987.85 876.91 1978.17 843.849 1960.31 814.012C1953.09 800.151 1942.52 777.861 1935.72 762.23C1928.92 746.598 1926.21 738.3 1923.41 724.557" stroke="black" stroke-width="30" stroke-linecap="round"/>
<path d="M2460.95 228.626C2433.77 208.136 2409.33 189.972 2387.56 183.491C2376.14 180.09 2364.57 186.745 2355.73 194.318C2337.02 210.342 2320.04 241.965 2308.37 268.212C2293.08 302.605 2294.56 329.227 2290.83 357.259C2286.29 391.382 2288.56 451.822 2293.94 497.232C2295.33 508.998 2299.78 518.977 2305.48 527.68C2311.33 536.617 2322.47 540.547 2335.86 543.955C2356.24 549.14 2374.32 542.541 2384.17 534.225C2404.72 516.875 2414.42 495.406 2451.84 422.446C2463.37 396.588 2468.24 383.006 2471.12 372.616C2472.44 367.018 2473.48 360.759 2476.12 346.676" stroke="black" stroke-width="30" stroke-linecap="round"/>
<path d="M2492.73 144.121C2493.56 144.121 2486.3 205.744 2474.64 334.355C2468.58 401.187 2470.68 471.829 2471.84 518.383C2474.79 635.861 2491.18 704.919 2490.07 745.177C2489.29 773.24 2460.81 792.157 2445.32 808.222C2421.47 832.944 2377.14 832.078 2352.96 835.111C2307.41 840.826 2276.78 793.898 2256.7 764.847C2252.33 757.531 2249.8 751.882 2248.25 744.729C2246.71 737.576 2246.23 729.09 2245.73 720.347" stroke="black" stroke-width="30" stroke-linecap="round"/>
<path d="M401.434 1185.28C401.434 1187.02 401.434 1208.22 401.33 1239.77C401.278 1255.62 400.076 1262.71 399.289 1275.07C399.201 1276.45 398.053 1274.45 397.531 1272.81C396.623 1269.98 396.614 1253.31 396.724 1229.18C396.811 1209.89 404.397 1191.87 406.98 1185.58C409.066 1180.5 433.523 1182.21 447.733 1184.18C451.872 1184.75 454.882 1189.25 457.825 1192.77C464.638 1200.92 463.525 1233.96 465.018 1255.41C465.845 1267.31 465.485 1274.71 464.104 1275.64C462.055 1277.01 460.266 1264.55 458.377 1247.76C454.788 1215.84 463.246 1207.35 468.71 1199.15C476.039 1188.15 501.827 1187.47 506.728 1188.1C508.844 1188.37 509.832 1190 510.616 1191.43C518.968 1206.61 518.712 1237.35 519.854 1244.29C520.963 1252.64 521.397 1257.69 521.641 1261.79C521.767 1264.59 521.897 1268.83 522.032 1273.2" stroke="black" stroke-width="20" stroke-linecap="round"/>
<path d="M550.121 1179.72C550.121 1226.84 551.625 1250.91 556.16 1257.88C558.17 1260.98 562.024 1262.16 566.401 1262.91C572.816 1264 578.491 1262.46 581.694 1260.92C587.902 1257.95 591.716 1250.75 595.108 1242.92C600.029 1231.56 601.169 1221.96 602.257 1209.78C602.876 1202.86 602.437 1190.82 602.673 1184.02C602.952 1175.97 605.128 1197.94 608.625 1243.91C610.359 1266.7 614.031 1288.24 615.664 1300.49C618.97 1325.28 615.927 1346.44 609.085 1356.6C604.617 1363.23 597.364 1367.73 591.688 1371.01C584.214 1375.32 566.145 1369.06 551.847 1363.38C547.913 1361.82 545.426 1359.54 543.377 1357.22C542.566 1356.3 541.86 1355.28 541.377 1354.15C539.64 1350.1 538.789 1344.5 539.039 1338.52C539.325 1335.59 539.897 1333.73 541.239 1330.11" stroke="black" stroke-width="20" stroke-linecap="round"/>
<path d="M772.402 1100.7C769.65 1108.12 766.898 1115.55 757.972 1135.57C749.045 1155.6 734.027 1188 723.584 1212.97C706.409 1254.02 701.528 1273.64 700.354 1275.46C693.883 1285.47 702.464 1242.81 716.779 1209.62C726.925 1186.1 745.306 1149.92 754.89 1130.1C765.475 1108.2 767.023 1104.19 769.183 1101.63C770.158 1100.47 772.269 1100.96 774.033 1101.47C777.633 1102.5 781.424 1108.03 792.064 1134.6C800.541 1156.82 815.268 1196.8 823.268 1218.15C831.268 1239.51 832.095 1241.03 832.948 1243.78" stroke="black" stroke-width="20" stroke-linecap="round"/>
<path d="M732.496 1197.76H821.495" stroke="black" stroke-width="16" stroke-linecap="round"/>
<path d="M847.555 1102.04H943.445" stroke="black" stroke-width="16" stroke-linecap="round"/>
<path d="M917.063 1102C917.063 1102.13 917.063 1102.25 917.063 1129.05C917.063 1155.85 917.063 1209.32 914.16 1262.35" stroke="black" stroke-width="20" stroke-linecap="round"/>
<path d="M866.949 1271.33H965.074" stroke="black" stroke-width="20" stroke-linecap="round"/>
<path d="M1128.32 1112.7C1128.52 1112.7 1128.73 1112.7 1128.49 1111.47C1128.24 1110.24 1127.55 1107.77 1123.96 1106.5C1120.36 1105.23 1113.87 1105.23 1109.31 1106.3C1101.81 1108.07 1098.28 1114.47 1095.52 1120.38C1093.29 1127.03 1091.2 1139.08 1089.53 1179.17C1088.96 1210.81 1088.96 1265.38 1088.96 1321.61" stroke="black" stroke-width="20" stroke-linecap="round"/>
<path d="M1029.12 1168.61C1069.74 1170.95 1149.75 1175.49 1145.29 1178.65C1133.9 1186.72 1136.7 1234.29 1141.82 1265.5C1142.97 1272.47 1149.56 1275.97 1154 1279.41C1158.16 1282.63 1164.38 1282.74 1170.42 1280.93C1183.5 1277.02 1183.85 1247.1 1184.58 1221.68C1185.14 1202.08 1171.33 1181.94 1157.94 1163.76C1157.25 1162.83 1156.5 1161.94 1155.6 1161.2C1153.25 1159.27 1151.1 1158.36 1148.79 1158.34C1146.06 1158.32 1143.19 1159.57 1138.71 1164.63" stroke="black" stroke-width="20" stroke-linecap="round"/>
<path d="M1203.28 1163.79C1204.55 1190.18 1209.01 1247.24 1210.41 1254.62C1211.15 1258.52 1212.07 1262.69 1212.64 1251.86C1214.56 1215.12 1216.49 1181.34 1222.34 1168.74C1227.12 1158.48 1234.75 1152.72 1241.18 1148.76C1246.33 1145.58 1251.89 1145.53 1257.06 1146.61C1258.24 1146.86 1259.39 1147.27 1260.44 1147.87C1263.21 1149.46 1266.29 1151.85 1269.2 1153.93C1272.67 1156.43 1275.77 1158.4 1278.97 1160.43" stroke="black" stroke-width="20" stroke-linecap="round"/>
<path d="M1425.61 1205.02C1425.19 1205.02 1440.2 1204.77 1463.86 1202.84C1472.42 1202.14 1473.46 1198.01 1474.06 1194.09C1475.37 1185.6 1472.83 1178 1468.33 1172.13C1456.99 1157.32 1434.32 1151.74 1416.11 1151.62C1402.77 1151.53 1404.26 1179.33 1404.4 1236.24C1404.46 1261.3 1419.99 1275.87 1436.69 1287.73C1438.19 1288.79 1439.84 1289.63 1441.59 1290.2C1453.68 1294.21 1463.6 1296.43 1473.3 1296.96C1480.71 1297.15 1492.42 1297.15 1504.5 1297.15" stroke="black" stroke-width="20" stroke-linecap="round"/>
<path d="M1499.98 1160.27C1520.08 1189.45 1540.18 1218.62 1552.17 1235.29C1564.17 1251.96 1567.46 1255.25 1570.4 1258.04C1573.34 1260.82 1575.83 1263.01 1580.75 1266.83" stroke="black" stroke-width="20" stroke-linecap="round"/>
<path d="M1557.23 1176.52C1538.43 1222.76 1525.85 1254.46 1520.16 1270.98C1517.38 1279.61 1514.8 1288.78 1513 1295.64C1511.2 1302.49 1510.26 1306.76 1509.29 1313.88" stroke="black" stroke-width="20" stroke-linecap="round"/>
<path d="M1597.52 1203.83C1607.69 1204.86 1631.77 1203.21 1635.17 1198.13C1641.34 1188.9 1637.95 1177.33 1636.9 1169.55C1636.44 1166.17 1633.74 1164.46 1631.14 1163.25C1625.78 1160.76 1618.11 1160.98 1610.56 1161.86C1604.44 1162.57 1601.4 1168.7 1598.84 1175.62C1594.85 1186.36 1595.01 1207.09 1595.87 1228.74C1596.49 1244.32 1611.45 1252.22 1623.81 1257.7C1625.81 1258.59 1627.95 1259.17 1630.14 1259.13C1636.84 1259.02 1643.69 1256.95 1649.82 1253.14C1653.09 1250.79 1655.63 1248.25 1661.01 1241.91" stroke="black" stroke-width="20" stroke-linecap="round"/>
<path d="M1739.51 1177.5C1739.51 1185.89 1739.51 1194.29 1738.77 1196.6C1733.7 1212.37 1717.17 1159.11 1707.14 1148.99C1704.59 1146.42 1701.18 1144.73 1698.14 1143.93C1695.1 1143.14 1692.25 1143.61 1690.15 1145.4C1680.53 1153.59 1681.63 1202.94 1683.42 1234.68C1683.59 1237.79 1684.45 1240.84 1686.34 1243.32C1694.69 1254.22 1711.56 1265.51 1733.2 1271.39C1734.3 1271.69 1735.42 1271.88 1736.56 1271.95C1742.27 1272.3 1748.26 1272 1757.47 1268.62" stroke="black" stroke-width="20" stroke-linecap="round"/>
<path d="M1777.64 1162.75C1780.73 1222.95 1783.92 1256.64 1787.82 1260.95C1791.63 1265.16 1798.8 1263.01 1803.92 1260.56C1820.43 1252.65 1821.61 1226.23 1824.97 1196.67C1825.3 1193.72 1830.52 1193.29 1831.31 1196.14C1834.54 1207.76 1838.7 1217.86 1843.11 1226.19C1846.94 1232.64 1850.39 1236.72 1853.94 1240.92" stroke="black" stroke-width="20" stroke-linecap="round"/>
<path d="M1879.74 1107.18C1879.32 1106.76 1880.8 1142.73 1885.03 1206.78C1887.55 1234.66 1890.84 1253.13 1892.68 1264.44C1894.52 1275.75 1894.8 1279.34 1896.72 1289.08" stroke="black" stroke-width="20" stroke-linecap="round"/>
<path d="M1857.23 1177.81C1857.23 1177.6 1857.23 1177.39 1870.56 1177.28C1883.89 1177.18 1910.56 1177.18 1938.04 1177.18" stroke="black" stroke-width="20" stroke-linecap="round"/>
<path d="M1963.63 1172.94C1963.43 1172.94 1963.23 1172.94 1963.6 1185.88C1963.97 1198.83 1964.93 1224.72 1966.7 1256.1" stroke="black" stroke-width="20" stroke-linecap="round"/>
<path d="M1996.48 1180.67C2004.85 1198.34 2026.3 1243.28 2034.79 1253.8C2035.3 1254.43 2035.91 1254.9 2036.58 1255.23C2039.9 1256.88 2043.49 1254.13 2045.37 1250.93C2051.66 1240.19 2057.72 1219.44 2063.06 1193.43C2065.28 1179.09 2065.58 1167.04 2065.9 1154.63" stroke="black" stroke-width="20" stroke-linecap="round"/>
<path d="M2102.99 1205.08C2133.43 1205.08 2150.76 1204.16 2155.34 1200.29C2161.83 1194.81 2159.55 1182.48 2158.37 1174.42C2157.86 1170.96 2154.8 1169.47 2150.66 1168.61C2140.83 1166.57 2131.23 1169.43 2125.06 1172.87C2115 1178.46 2107.75 1190.64 2100.89 1219.73C2097.09 1235.87 2101.14 1247.39 2104.21 1252.62C2110.54 1263.4 2128.71 1265.16 2155.61 1265.32C2156.67 1265.32 2157.74 1265.25 2158.78 1265.05C2164.18 1264 2167.78 1262.15 2171.36 1259.77C2175.27 1257.17 2179.04 1254.01 2183.71 1248.38" stroke="black" stroke-width="20" stroke-linecap="round"/>
<path d="M1954.64 1103.93V1119.75" stroke="black" stroke-width="20" stroke-linecap="round"/>
<path d="M2354.11 1183.52C2354.52 1183.52 2340.37 1174.62 2317.99 1162.68C2310.43 1158.64 2308.75 1162.73 2306.4 1175.68C2293.64 1245.82 2297.84 1274.93 2300.32 1283.58C2301.44 1287.48 2304.54 1289.55 2307.97 1290.98C2311.39 1292.42 2315.62 1292.93 2319.26 1291.99C2326.41 1290.14 2333.58 1276.29 2346.4 1239C2355.71 1211.95 2365.87 1166.85 2372.1 1140.52C2379.85 1107.78 2379.89 1084.87 2379.2 1062.83C2379.01 1056.71 2377.12 1061.03 2376.13 1096.32C2375.13 1131.6 2374.57 1197.74 2375.02 1235.26C2375.46 1272.77 2376.94 1279.65 2378.31 1284.67C2379.68 1289.7 2380.9 1292.66 2382.17 1295.72" stroke="black" stroke-width="20" stroke-linecap="round"/>
<path d="M2415.09 1194.47C2420.9 1214.03 2435.24 1257.59 2440.45 1261.73C2444.95 1265.31 2451.58 1264.42 2457.24 1263.35C2472.49 1260.46 2474.15 1216.77 2474.82 1184.32C2474.89 1180.71 2472.49 1183.34 2471.32 1186.15C2470.14 1188.96 2469.39 1191.95 2466.71 1228.53C2464.03 1265.11 2459.44 1335.17 2454.71 1407.36" stroke="black" stroke-width="20" stroke-linecap="round"/>
<path d="M2558.58 1182.08C2548.78 1181.21 2538.77 1180.77 2530.07 1181.22C2523.83 1181.55 2518.46 1186.29 2513.4 1191.97C2509.05 1196.86 2509.95 1205.64 2510.86 1213.79C2512.92 1232.15 2551.04 1246.23 2562.53 1256.19C2563.17 1256.75 2563.61 1257.46 2563.86 1258.23C2564.83 1261.16 2561.93 1263.56 2559.02 1264.61C2555.1 1266.03 2549.95 1267.37 2543.01 1269.28C2536.27 1271.05 2525.98 1273.63 2515.38 1276.28" stroke="black" stroke-width="20" stroke-linecap="round"/>
<path d="M2636.47 1145.67C2636.92 1144.77 2636.91 1141.41 2635.42 1136.39C2634.04 1131.73 2627.1 1131.2 2621.96 1130.51C2619.35 1130.16 2616.65 1130.56 2614.83 1132C2610.99 1135.03 2610.58 1142.75 2609.58 1163.21C2607.36 1208.65 2610.48 1246.34 2612.92 1259.62C2619.34 1282.32 2627.1 1310.18 2629.88 1320.77C2630.57 1323.32 2631.35 1325.7 2632.14 1328.14" stroke="black" stroke-width="20" stroke-linecap="round"/>
<path d="M2585.68 1227.92H2648.71" stroke="black" stroke-width="20" stroke-linecap="round"/>
<path d="M2669.24 1197.48C2669.43 1249.36 2674.11 1263.31 2681.52 1271.56C2685.9 1276.43 2694.54 1275.84 2701.83 1274.5C2717.66 1271.6 2720.6 1250.37 2729.02 1203.46C2729.25 1202.19 2729.44 1200.95 2729.61 1199.77C2731.16 1189.05 2734.66 1188.1 2737.08 1198.66C2737.87 1202.1 2738.75 1206.05 2739.74 1210.55C2743.3 1225.14 2749.41 1248.08 2757.06 1273.79" stroke="black" stroke-width="20" stroke-linecap="round"/>
<path d="M2797.09 1189.36C2797.09 1218.32 2797.09 1244.23 2797.09 1250.69C2797.09 1305.45 2807.17 1173.63 2812.07 1165.88C2816.12 1159.48 2828.06 1159.76 2839.09 1161.52C2854.53 1163.99 2855.18 1220.63 2857.89 1250.83C2858.9 1259.15 2861.56 1278.17 2865.19 1301.27C2866.87 1310.01 2868.21 1312.68 2871.94 1316.23" stroke="black" stroke-width="20" stroke-linecap="round"/>
<path d="M2937.18 1177.41C2930.92 1170.98 2912.77 1157.43 2907.74 1159.12C2891.52 1164.59 2895.61 1202.44 2894.84 1248.93C2894.66 1259.67 2899.17 1264.85 2903 1268.65C2903.77 1269.42 2904.61 1270.12 2905.53 1270.71C2910.3 1273.73 2916.46 1276.1 2923.36 1277.56C2927.02 1278.1 2930.29 1278.1 2936.01 1276.53" stroke="black" stroke-width="20" stroke-linecap="round"/>
<path d="M2986.85 1115.42V1274.17" stroke="black" stroke-width="20" stroke-linecap="round"/>
<path d="M2950.86 1177.93H3022.48" stroke="black" stroke-width="20" stroke-linecap="round"/>
<path d="M3046.87 1182.48V1264.32" stroke="black" stroke-width="20" stroke-linecap="round"/>
<path d="M3087.87 1185.01C3088.43 1218.52 3090.08 1238.82 3093.02 1244.45C3095.68 1249.53 3102.06 1253.73 3110.01 1257.91C3117.63 1261.91 3125.33 1261 3130.84 1259.33C3145.53 1254.88 3147.58 1226.8 3148.07 1198.23C3148.35 1181.99 3139.1 1171.7 3129.74 1164.84C3128.01 1163.56 3126.04 1162.65 3123.92 1162.25C3118.11 1161.18 3110.24 1160.87 3101.44 1161.42C3096.98 1162.08 3094.29 1163.39 3088.64 1167.61" stroke="black" stroke-width="20" stroke-linecap="round"/>
<path d="M3183.44 1164.4C3183.44 1218.12 3183.44 1251.63 3183.44 1253.01C3183.44 1296.87 3196.15 1185.54 3210.38 1162.57C3213.47 1157.58 3217.16 1157.18 3219.95 1156.97C3231.83 1156.08 3249.26 1183.28 3259.4 1201.89C3260.23 1203.41 3260.85 1205.03 3261.2 1206.73C3262.27 1211.95 3263.3 1219.11 3263.87 1228.38C3264.54 1239.25 3264.54 1252.8 3266.11 1271.46" stroke="black" stroke-width="20" stroke-linecap="round"/>
<path d="M3028.95 1096.27L3040.71 1123.91" stroke="black" stroke-width="20" stroke-linecap="round"/>
</svg>
