<svg width="3556" height="1680" viewBox="0 0 3556 1680" fill="none" xmlns="http://www.w3.org/2000/svg">
<rect width="3556" height="1680" fill="white"/>
<path d="M990.885 169C1011.79 167.89 1027.44 167.296 1037.36 166.987C1041.4 166.331 1045.5 165.75 1050.66 165.076C1063.07 163.188 1088.39 161.384 1115.32 162.113C1127 162.429 1130.85 162.27 1134.27 163.592C1146.42 168.287 1173.44 184.946 1186.65 193.676C1190.08 195.948 1214.12 206.009 1246.8 222.576C1261.94 230.246 1270.4 234.946 1281.66 244.301C1297.27 257.269 1315.2 270.186 1329.62 279.504C1337.94 284.884 1344.45 288.226 1349.2 294.289C1359.74 307.764 1367.87 320.501 1376.9 330.435C1385.66 340.077 1406.84 352.678 1439.54 377.688C1451.68 386.977 1462.58 398.306 1479.87 436.753C1493.41 466.861 1515.28 517.599 1525.55 544.433C1536.61 573.336 1537.45 583.854 1536.75 596.628C1536.41 602.986 1535.74 613.536 1529.88 626.472C1522.83 642.023 1511.56 659.372 1498.91 670.509C1493.05 675.669 1487.39 679.499 1469.44 690.85C1460.32 696.613 1437.94 708.689 1408.1 721.054C1396.67 725.792 1392.01 726.847 1359.03 736.822L1353.92 738.367C1320.19 748.566 1264.9 765.283 1235.9 774.795C1203.56 785.402 1191.11 792.558 1175.35 807.72C1162.05 820.514 1146.55 837.591 1119.38 855.514C1103.92 865.716 1084.18 876.562 1071.55 881.811C1058.92 887.06 1053.57 886.722 1035.42 882.881C1017.27 879.04 987.239 871.912 962.142 864.329C937.045 856.745 917.333 849.251 905.623 843.907C889.753 836.664 877.426 831.879 870.857 820.209C864.475 808.874 857.65 777.735 864.611 749.662C866.248 743.058 871.375 727.475 873.939 699.089C875.305 683.968 876.022 667.272 874.72 654.185C871.396 620.76 871.391 614.069 866.299 600.546C860.761 585.842 851.156 576.217 831.713 532.636C823.88 515.079 824.047 503.389 820.529 497.785L820.372 497.535C814.123 487.583 805.521 473.884 806.926 442.293C807.343 432.916 807.195 427.017 811.106 399.002C814.593 374.023 820.39 328.352 826.158 301.675C833.692 266.831 838.609 254.352 845.663 245.365C854.842 233.67 867.152 220.073 882.45 209.425C896.127 199.905 916.294 187.748 944.871 178.373C959.101 173.706 973.294 169.934 990.885 169Z" fill="white"/>
<path d="M1049.96 166.674C1049.21 166.674 1028.62 166.997 990.885 169C973.294 169.934 959.101 173.706 944.871 178.373C916.294 187.748 896.127 199.905 882.45 209.425C867.152 220.073 854.842 233.67 845.663 245.365C838.609 254.352 833.692 266.831 826.158 301.675C820.39 328.352 814.593 374.023 811.106 399.002C807.195 427.017 807.343 432.916 806.926 442.293C805.509 474.15 814.268 487.813 820.529 497.785C824.047 503.389 823.88 515.079 831.713 532.636C851.156 576.217 860.761 585.842 866.299 600.546C871.391 614.069 871.396 620.76 874.72 654.185C876.022 667.272 875.305 683.968 873.939 699.089C871.375 727.475 866.248 743.058 864.611 749.662C857.65 777.735 864.475 808.874 870.857 820.209C877.426 831.879 889.753 836.664 905.623 843.907C917.333 849.251 937.045 856.745 962.142 864.329C987.239 871.912 1017.27 879.04 1035.42 882.881C1053.57 886.722 1058.92 887.06 1071.55 881.811C1084.18 876.562 1103.92 865.716 1119.38 855.514C1146.55 837.591 1162.05 820.514 1175.35 807.72C1191.11 792.558 1203.56 785.402 1235.9 774.795C1266.41 764.785 1326.04 746.798 1359.03 736.822C1392.01 726.847 1396.67 725.792 1408.1 721.054C1437.94 708.689 1460.32 696.613 1469.44 690.85C1487.39 679.499 1493.05 675.669 1498.91 670.509C1511.56 659.372 1522.83 642.023 1529.88 626.472C1535.74 613.536 1536.41 602.986 1536.75 596.628C1537.45 583.854 1536.61 573.336 1525.55 544.433C1515.28 517.599 1493.41 466.861 1479.87 436.753C1462.58 398.306 1451.68 386.977 1439.54 377.688C1406.84 352.678 1385.66 340.077 1376.9 330.435C1367.87 320.501 1359.74 307.764 1349.2 294.289C1344.45 288.226 1337.94 284.884 1329.62 279.504C1315.2 270.186 1297.27 257.269 1281.66 244.301C1270.4 234.946 1261.94 230.246 1246.8 222.576C1214.12 206.009 1190.08 195.948 1186.65 193.676C1173.44 184.946 1146.42 168.287 1134.27 163.592C1130.85 162.27 1127 162.429 1115.32 162.113C1088.39 161.384 1063.07 163.188 1050.66 165.076C1043.79 165.973 1038.8 166.706 1033.32 167.671C1030.77 168.103 1028.71 168.416 1023.95 169.557" stroke="black" stroke-width="30" stroke-linecap="round"/>
<path d="M1014.31 289.564C1036.15 283.391 1075.47 280.42 1088.14 280.42L1074.66 277.259C1079.27 276.328 1081.07 275.849 1083.39 275.084C1095.55 272.281 1108.5 273 1120.96 277.495C1129.22 281.681 1137.21 283.388 1146.56 289.372C1159 297.344 1175.4 307.454 1186.96 322.806C1196.99 336.114 1208.87 353.827 1219.96 373.153C1230.17 390.937 1236.99 402.762 1240.05 408.774C1244.12 416.765 1250.52 450.795 1243.55 471.808C1236.79 492.17 1228.53 504.801 1219.59 517.144C1210.24 530.043 1208.02 538.204 1197.37 547.425C1185.1 558.049 1168.51 569.745 1160.88 572.576C1152.93 575.524 1140.59 581.897 1116.01 581.933C1078.5 581.987 1052.48 581.999 1047.79 581.225C1026.23 577.665 987.034 572.204 967.461 556.721C957.082 548.512 947.443 539.396 931.314 515.031C921.567 500.306 902.552 474.486 908.819 439.093C911.864 421.899 916.12 407.146 926.33 391.168C942.555 365.777 954.391 345.733 961.195 336.317C968.964 325.565 975.426 316.631 980.79 312.011C991.237 303.014 1002.98 292.766 1014.31 289.564Z" fill="#FFC927" stroke="black" stroke-width="30" stroke-linecap="round" stroke-linejoin="round"/>
<path d="M1031.63 430.831L1032.05 432.998" stroke="black" stroke-width="30" stroke-linecap="round"/>
<path d="M1099.86 402.189V408.181" stroke="black" stroke-width="30" stroke-linecap="round"/>
<path d="M1031.63 492.017C1033.43 492.339 1038.54 494.072 1046.76 498.768C1052.15 501.841 1058.49 504.266 1070.13 507.559C1081.55 510.788 1087.12 509.963 1091.99 510.412C1101.96 511.334 1117.32 510.551 1126.2 509C1132.75 507.858 1140.09 503.47 1145.93 499.276C1149.78 496.509 1160.6 488.609 1170.88 480.946C1178.33 473.439 1183.03 466.201 1186.33 460.35C1187.03 459.216 1187.75 458.302 1189.37 455.647" stroke="black" stroke-width="30" stroke-linecap="round"/>
<path d="M1839.86 384.364C1815.43 393.657 1747.96 376.413 1718.41 366.479C1714 327.719 1713.69 289.688 1725.91 268.105C1740.01 243.19 1784.06 185.145 1832.36 195.146C1846.56 198.088 1859.65 200.163 1866.46 210.747C1884.29 238.457 1895.06 295.982 1879.11 334.958C1872.11 352.052 1861.17 376.264 1839.86 384.364Z" fill="white"/>
<path d="M1714.34 365.072C1741.23 374.656 1814.23 394.113 1839.86 384.364C1861.17 376.264 1872.11 352.052 1879.11 334.958C1895.06 295.982 1884.29 238.457 1866.46 210.747C1859.65 200.163 1846.56 198.088 1832.36 195.146C1784.06 185.145 1740.01 243.19 1725.91 268.105C1707.05 301.424 1718.05 373.938 1727.86 427.824C1734.57 464.673 1763.74 487.484 1792.84 519.677C1811.47 540.293 1847.1 544.369 1879.95 542.006C1900.84 524.989 1915.02 500.926 1931.05 477.303C1935.74 471.527 1940.94 465.794 1946.29 459.887" stroke="black" stroke-width="30" stroke-linecap="round"/>
<path d="M2151.64 210.701C2147.04 207.832 2139.54 201.743 2129.07 193.95C2119.63 186.925 2101.86 187.485 2082.05 190.196C2041.14 195.796 2025.25 251.761 2012.14 298.447C1990.17 376.675 2006.75 470.626 2021.95 495.32C2033.01 513.288 2065.23 516.356 2105.04 514.533C2129.2 482.282 2160.03 373.322 2179.77 289.86C2181.58 276.435 2181.58 262.936 2181.58 249.029" stroke="black" stroke-width="30" stroke-linecap="round"/>
<path d="M2181.59 170.407C2181.59 217.596 2181.59 264.786 2181.87 355.559C2182.16 446.333 2182.72 579.259 2183.36 650.208C2184.05 726.105 2186.04 757.048 2184.42 799.257C2182.86 839.739 2128.26 855.402 2084.43 875.806C2061.37 886.538 2040.13 887.29 2024.17 884.121C1987.85 876.91 1978.17 843.849 1960.31 814.012C1953.09 800.151 1942.52 777.861 1935.72 762.23C1928.92 746.598 1926.21 738.3 1923.41 724.557" stroke="black" stroke-width="30" stroke-linecap="round"/>
<path d="M2460.95 228.626C2433.77 208.136 2409.33 189.972 2387.56 183.491C2376.14 180.09 2364.57 186.745 2355.73 194.318C2337.02 210.342 2320.04 241.965 2308.37 268.212C2293.08 302.605 2294.56 329.227 2290.83 357.259C2286.29 391.382 2288.56 451.822 2293.94 497.232C2295.33 508.998 2299.78 518.977 2305.48 527.68C2311.33 536.617 2322.47 540.547 2335.86 543.955C2356.24 549.14 2374.32 542.541 2384.17 534.225C2404.72 516.875 2414.42 495.406 2451.84 422.446C2463.37 396.588 2468.24 383.006 2471.12 372.616C2472.44 367.018 2473.48 360.759 2476.12 346.676" stroke="black" stroke-width="30" stroke-linecap="round"/>
<path d="M2492.73 144.121C2493.56 144.121 2486.3 205.744 2474.64 334.355C2468.58 401.187 2470.68 471.829 2471.84 518.383C2474.79 635.861 2491.18 704.919 2490.07 745.177C2489.29 773.24 2460.81 792.157 2445.32 808.222C2421.47 832.944 2377.14 832.078 2352.96 835.111C2307.41 840.826 2276.78 793.898 2256.7 764.847C2252.33 757.531 2249.8 751.882 2248.25 744.729C2246.71 737.576 2246.23 729.09 2245.73 720.347" stroke="black" stroke-width="30" stroke-linecap="round"/>
<path d="M91.5219 1344.4C91.5219 1346.43 91.5219 1371.25 91.4006 1408.17C91.3396 1426.72 89.9332 1435.02 89.0114 1449.48C88.9082 1451.1 87.5649 1448.76 86.9542 1446.85C85.8917 1443.52 85.8805 1424.02 86.0092 1395.77C86.1119 1373.2 94.9899 1352.1 98.013 1344.74C100.454 1338.79 129.079 1340.81 145.71 1343.1C150.555 1343.77 154.078 1349.05 157.523 1353.16C165.497 1362.7 164.194 1401.37 165.941 1426.48C166.909 1440.4 166.488 1449.07 164.871 1450.15C162.473 1451.75 160.379 1437.17 158.169 1417.52C153.968 1380.17 163.867 1370.22 170.263 1360.63C178.84 1347.76 209.023 1346.95 214.758 1347.7C217.235 1348.02 218.391 1349.92 219.309 1351.59C229.084 1369.36 228.785 1405.34 230.122 1413.46C231.42 1423.23 231.927 1429.14 232.213 1433.94C232.36 1437.21 232.513 1442.18 232.67 1447.29" stroke="black" stroke-width="20" stroke-linecap="round"/>
<path d="M265.544 1337.89C265.544 1393.04 267.305 1421.21 272.612 1429.37C274.965 1432.99 279.476 1434.38 284.598 1435.25C292.106 1436.53 298.749 1434.73 302.498 1432.93C309.764 1429.44 314.227 1421.02 318.197 1411.86C323.957 1398.57 325.291 1387.32 326.565 1373.07C327.289 1364.97 326.775 1350.88 327.051 1342.92C327.378 1333.5 329.925 1359.22 334.018 1413.01C336.047 1439.68 340.345 1464.91 342.256 1479.24C346.125 1508.25 342.563 1533.02 334.555 1544.91C329.326 1552.67 320.838 1557.94 314.194 1561.77C305.446 1566.81 284.299 1559.49 267.564 1552.85C262.826 1550.96 259.882 1548.2 257.444 1545.39C256.639 1544.47 255.934 1543.46 255.436 1542.34C253.319 1537.57 252.275 1530.89 252.574 1523.75C252.908 1520.31 253.578 1518.15 255.148 1513.91" stroke="black" stroke-width="20" stroke-linecap="round"/>
<path d="M525.705 1245.4C522.484 1254.09 519.263 1262.78 508.815 1286.22C498.367 1309.66 480.79 1347.58 468.568 1376.8C448.467 1424.85 442.754 1447.82 441.379 1449.94C433.806 1461.66 443.849 1411.72 460.603 1372.89C472.478 1345.36 493.991 1303.01 505.209 1279.81C517.598 1254.18 519.409 1249.49 521.937 1246.49C523.078 1245.13 525.549 1245.71 527.614 1246.3C531.827 1247.51 536.264 1253.99 548.717 1285.07C558.639 1311.08 575.875 1357.88 585.238 1382.87C594.602 1407.87 595.57 1409.65 596.568 1412.87" stroke="black" stroke-width="20" stroke-linecap="round"/>
<path d="M478.996 1359.01H583.161" stroke="black" stroke-width="16" stroke-linecap="round"/>
<path d="M613.664 1246.97H725.894" stroke="black" stroke-width="16" stroke-linecap="round"/>
<path d="M695.015 1246.92C695.015 1247.07 695.015 1247.22 695.015 1278.59C695.015 1309.95 695.015 1372.53 691.617 1434.6" stroke="black" stroke-width="20" stroke-linecap="round"/>
<path d="M636.363 1445.1H751.209" stroke="black" stroke-width="20" stroke-linecap="round"/>
<path d="M942.273 1259.45C942.511 1259.45 942.749 1259.45 942.467 1258.01C942.185 1256.56 941.376 1253.68 937.164 1252.19C932.953 1250.7 925.363 1250.7 920.024 1251.96C911.242 1254.03 907.119 1261.52 903.883 1268.43C901.28 1276.22 898.825 1290.32 896.871 1337.24C896.207 1374.27 896.207 1438.15 896.207 1503.96" stroke="black" stroke-width="20" stroke-linecap="round"/>
<path d="M826.168 1324.88C873.713 1327.62 967.354 1332.94 962.133 1336.63C948.8 1346.07 952.074 1401.75 958.075 1438.29C959.414 1446.44 967.127 1450.54 972.327 1454.56C977.196 1458.33 984.481 1458.46 991.55 1456.34C1006.85 1451.76 1007.27 1416.75 1008.12 1386.99C1008.77 1363.97 992.486 1340.31 976.762 1318.97C976.074 1318.04 975.318 1317.15 974.433 1316.41C971.593 1314.01 969.011 1312.89 966.233 1312.87C963.039 1312.84 959.673 1314.3 954.429 1320.23" stroke="black" stroke-width="20" stroke-linecap="round"/>
<path d="M1030 1319.24C1031.49 1350.12 1036.71 1416.92 1038.35 1425.55C1039.21 1430.11 1040.29 1434.99 1040.95 1422.32C1043.2 1379.32 1045.47 1339.78 1052.32 1325.04C1057.9 1313.02 1066.84 1306.29 1074.36 1301.65C1080.49 1297.87 1087.11 1297.87 1093.25 1299.2C1094.43 1299.46 1095.57 1299.86 1096.63 1300.46C1099.95 1302.31 1103.66 1305.2 1107.15 1307.7C1111.22 1310.63 1114.85 1312.93 1118.59 1315.31" stroke="black" stroke-width="20" stroke-linecap="round"/>
<path d="M1290.21 1367.49C1289.73 1367.49 1307.3 1367.21 1334.98 1364.95C1345.01 1364.13 1346.22 1359.3 1346.93 1354.7C1348.46 1344.77 1345.48 1335.88 1340.22 1329.01C1326.94 1311.67 1300.42 1305.14 1279.1 1305C1263.49 1304.9 1265.24 1337.43 1265.4 1404.04C1265.47 1433.57 1283.88 1450.65 1303.58 1464.57C1305.08 1465.63 1306.73 1466.47 1308.48 1467.05C1322.83 1471.83 1334.57 1474.48 1346.04 1475.1C1354.71 1475.32 1368.42 1475.32 1382.55 1475.32" stroke="black" stroke-width="20" stroke-linecap="round"/>
<path d="M1377.27 1315.13C1400.79 1349.27 1424.31 1383.41 1438.35 1402.93C1452.39 1422.44 1456.24 1426.29 1459.68 1429.55C1463.12 1432.81 1466.04 1435.37 1471.79 1439.84" stroke="black" stroke-width="20" stroke-linecap="round"/>
<path d="M1444.27 1334.14C1422.27 1388.27 1407.54 1425.37 1400.88 1444.69C1397.63 1454.8 1394.61 1465.53 1392.5 1473.56C1390.39 1481.58 1389.29 1486.58 1388.15 1494.91" stroke="black" stroke-width="20" stroke-linecap="round"/>
<path d="M1491.43 1366.11C1503.33 1367.31 1531.51 1365.39 1535.49 1359.43C1542.71 1348.63 1538.74 1335.09 1537.51 1325.99C1536.97 1322.02 1533.82 1320.02 1530.77 1318.61C1524.5 1315.69 1515.53 1315.95 1506.68 1316.98C1499.53 1317.82 1495.97 1324.99 1492.97 1333.08C1488.3 1345.66 1488.49 1369.93 1489.5 1395.26C1490.23 1413.71 1508.15 1422.95 1522.71 1429.39C1524.71 1430.27 1526.85 1430.85 1529.04 1430.84C1537.06 1430.82 1545.29 1428.38 1552.64 1423.82C1556.46 1421.07 1559.43 1418.09 1565.74 1410.67" stroke="black" stroke-width="20" stroke-linecap="round"/>
<path d="M1657.61 1335.29C1657.61 1345.11 1657.61 1354.94 1656.74 1357.64C1650.81 1376.1 1631.46 1313.77 1619.73 1301.93C1616.74 1298.91 1612.75 1296.93 1609.19 1296C1605.63 1295.07 1602.3 1295.62 1599.84 1297.72C1588.5 1307.37 1589.88 1365.91 1592 1403.02C1592.18 1406.13 1593.04 1409.18 1594.9 1411.68C1604.53 1424.68 1624.62 1438.28 1650.51 1445.26C1651.6 1445.55 1652.73 1445.74 1653.86 1445.82C1660.64 1446.25 1667.7 1445.94 1678.63 1441.94" stroke="black" stroke-width="20" stroke-linecap="round"/>
<path d="M1702.24 1318.03C1705.85 1388.49 1709.58 1427.92 1714.15 1432.96C1718.62 1437.89 1727 1435.37 1732.99 1432.5C1752.32 1423.24 1753.7 1392.32 1757.63 1357.72C1758.02 1354.27 1764.12 1353.77 1765.05 1357.11C1768.84 1370.7 1773.7 1382.53 1778.86 1392.28C1783.35 1399.82 1787.38 1404.6 1791.54 1409.52" stroke="black" stroke-width="20" stroke-linecap="round"/>
<path d="M1821.73 1252.99C1821.24 1252.5 1822.98 1294.59 1827.93 1369.56C1830.88 1402.19 1834.73 1423.81 1836.88 1437.05C1839.03 1450.28 1839.36 1454.48 1841.61 1465.89" stroke="black" stroke-width="20" stroke-linecap="round"/>
<path d="M1795.39 1335.65C1795.39 1335.41 1795.39 1335.16 1810.99 1335.04C1826.6 1334.91 1857.81 1334.91 1889.97 1334.91" stroke="black" stroke-width="20" stroke-linecap="round"/>
<path d="M1919.92 1329.95C1919.69 1329.95 1919.45 1329.95 1919.88 1345.1C1920.32 1360.25 1921.44 1390.56 1923.51 1427.28" stroke="black" stroke-width="20" stroke-linecap="round"/>
<path d="M1958.37 1339C1968.17 1359.68 1993.27 1412.28 2003.21 1424.59C2004.02 1425.6 2005.07 1426.25 2006.19 1426.63C2009.71 1427.82 2013.16 1425.22 2015.1 1422.05C2022.63 1409.74 2029.91 1385.06 2036.29 1353.93C2038.89 1337.15 2039.25 1323.05 2039.62 1308.52" stroke="black" stroke-width="20" stroke-linecap="round"/>
<path d="M2083.03 1367.57C2118.66 1367.57 2138.94 1366.49 2144.3 1361.96C2151.89 1355.55 2149.23 1341.12 2147.84 1331.69C2147.25 1327.64 2143.67 1325.89 2138.82 1324.88C2127.31 1322.5 2116.09 1325.85 2108.86 1329.87C2097.09 1336.41 2088.6 1350.67 2080.57 1384.72C2076.12 1403.61 2080.86 1417.09 2084.46 1423.21C2091.89 1435.86 2113.26 1437.9 2144.89 1438.07C2145.95 1438.08 2147.02 1438.01 2148.05 1437.81C2154.53 1436.59 2158.8 1434.4 2163.05 1431.58C2167.62 1428.54 2172.04 1424.83 2177.5 1418.25" stroke="black" stroke-width="20" stroke-linecap="round"/>
<path d="M1909.39 1249.18V1267.7" stroke="black" stroke-width="20" stroke-linecap="round"/>
<path d="M2376.93 1342.33C2377.42 1342.33 2360.85 1331.91 2334.66 1317.94C2325.82 1313.22 2323.85 1318.01 2321.1 1333.16C2306.17 1415.25 2311.08 1449.32 2313.98 1459.44C2315.29 1464.01 2318.92 1466.43 2322.93 1468.11C2326.94 1469.79 2331.89 1470.39 2336.15 1469.29C2344.52 1467.13 2352.9 1450.92 2367.92 1407.27C2378.81 1375.61 2390.7 1322.82 2397.99 1292.01C2407.07 1253.69 2407.12 1226.87 2406.31 1201.07C2406.08 1193.92 2403.87 1198.98 2402.71 1240.27C2401.54 1281.56 2400.88 1358.98 2401.41 1402.89C2401.93 1446.79 2403.66 1454.84 2405.26 1460.72C2406.86 1466.6 2408.3 1470.08 2409.77 1473.65" stroke="black" stroke-width="20" stroke-linecap="round"/>
<path d="M2448.32 1355.15C2455.11 1378.04 2471.89 1429.02 2478 1433.88C2483.26 1438.06 2491.02 1437.02 2497.64 1435.76C2515.49 1432.39 2517.44 1381.26 2518.21 1343.27C2518.3 1339.04 2515.49 1342.12 2514.12 1345.41C2512.74 1348.7 2511.87 1352.21 2508.73 1395.02C2505.59 1437.82 2500.22 1519.83 2494.68 1604.32" stroke="black" stroke-width="20" stroke-linecap="round"/>
<path d="M2616.25 1340.65C2604.78 1339.63 2593.06 1339.11 2582.88 1339.65C2575.58 1340.03 2569.29 1345.57 2563.37 1352.22C2558.28 1357.95 2559.33 1368.23 2560.4 1377.77C2562.81 1399.25 2607.43 1415.73 2620.87 1427.39C2621.84 1428.23 2622.4 1429.37 2622.63 1430.55C2623.22 1433.58 2620.42 1435.87 2617.52 1436.96C2612.85 1438.73 2606.6 1440.35 2598.02 1442.71C2590.13 1444.78 2578.09 1447.8 2565.69 1450.91" stroke="black" stroke-width="20" stroke-linecap="round"/>
<path d="M2707.42 1298.04C2707.94 1296.99 2707.93 1293.05 2706.19 1287.18C2704.57 1281.72 2696.45 1281.1 2690.43 1280.29C2687.37 1279.89 2684.21 1280.35 2682.09 1282.03C2677.59 1285.59 2677.12 1294.62 2675.95 1318.56C2673.35 1371.75 2677 1415.86 2679.85 1431.41C2687.36 1457.97 2696.45 1490.57 2699.7 1502.97C2700.51 1505.96 2701.42 1508.74 2702.35 1511.6" stroke="black" stroke-width="20" stroke-linecap="round"/>
<path d="M2647.96 1394.3H2721.74" stroke="black" stroke-width="20" stroke-linecap="round"/>
<path d="M2745.77 1358.67C2746 1419.39 2751.47 1435.72 2760.15 1445.38C2765.26 1451.08 2775.39 1450.39 2783.91 1448.82C2802.44 1445.42 2805.89 1420.57 2815.73 1365.67C2816.22 1362.97 2816.59 1360.42 2816.86 1358.06C2818.13 1347.31 2821.94 1346.28 2824.42 1356.82C2825.54 1361.54 2826.81 1367.23 2828.29 1373.97C2832.45 1391.04 2839.6 1417.9 2848.56 1447.99" stroke="black" stroke-width="20" stroke-linecap="round"/>
<path d="M2895.4 1349.17C2895.4 1383.07 2895.4 1413.39 2895.4 1420.95C2895.4 1485.04 2907.21 1330.76 2912.94 1321.68C2917.68 1314.2 2931.65 1314.53 2944.56 1316.59C2962.64 1319.48 2963.39 1385.77 2966.57 1421.11C2967.75 1430.85 2970.86 1453.11 2975.11 1480.15C2977.08 1490.37 2978.64 1493.51 2983.01 1497.66" stroke="black" stroke-width="20" stroke-linecap="round"/>
<path d="M3059.37 1335.19C3052.04 1327.65 3030.8 1311.8 3024.91 1313.78C3005.93 1320.18 3010.71 1364.47 3009.81 1418.89C3009.6 1431.65 3015.04 1437.7 3019.57 1442.17C3020.34 1442.93 3021.18 1443.64 3022.09 1444.23C3027.7 1447.84 3035 1450.67 3043.2 1452.4C3047.48 1453.03 3051.3 1453.03 3058 1451.19" stroke="black" stroke-width="20" stroke-linecap="round"/>
<path d="M3117.5 1262.64V1448.43" stroke="black" stroke-width="20" stroke-linecap="round"/>
<path d="M3075.38 1335.79H3159.2" stroke="black" stroke-width="20" stroke-linecap="round"/>
<path d="M3187.75 1341.12V1436.9" stroke="black" stroke-width="20" stroke-linecap="round"/>
<path d="M3235.74 1344.07C3236.4 1383.3 3238.33 1407.06 3241.77 1413.64C3244.88 1419.59 3252.34 1424.51 3261.65 1429.4C3270.57 1434.09 3279.58 1433.02 3286.03 1431.07C3303.22 1425.85 3305.62 1392.99 3306.19 1359.55C3306.53 1340.28 3295.39 1328.18 3284.29 1320.14C3282.55 1318.88 3280.59 1317.96 3278.48 1317.55C3271.62 1316.2 3262.2 1315.81 3251.62 1316.47C3246.4 1317.24 3243.25 1318.78 3236.64 1323.71" stroke="black" stroke-width="20" stroke-linecap="round"/>
<path d="M3347.59 1319.95C3347.59 1382.83 3347.59 1422.05 3347.59 1423.66C3347.59 1475 3362.47 1344.7 3379.12 1317.81C3382.73 1311.98 3387.06 1311.5 3390.32 1311.26C3404.31 1310.21 3424.86 1342.44 3436.7 1364.22C3437.53 1365.74 3438.15 1367.37 3438.5 1369.06C3439.79 1375.21 3441.04 1383.73 3441.73 1394.83C3442.51 1407.57 3442.51 1423.42 3444.35 1445.26" stroke="black" stroke-width="20" stroke-linecap="round"/>
<path d="M3166.78 1240.22L3180.54 1272.57" stroke="black" stroke-width="20" stroke-linecap="round"/>
</svg>
